<svg width="24" height="24" viewBox="0 0 24 24" fill="none" xmlns="http://www.w3.org/2000/svg">
<path d="M5.33589 13.9676C5.11132 13.7705 4.93167 13.6124 4.8 13.4963V13.4275L4.5364 13.1638C3.49568 12.1231 2.9 10.7484 2.9 9.30024V9.11443C2.9922 6.30955 5.3878 4.00024 8.2 4.00024C8.61742 4.00024 9.17124 4.1454 9.72331 4.44267C10.2443 4.7232 10.7016 5.10599 11.0053 5.53288C11.447 6.47266 12.8087 6.45573 13.2173 5.48211C13.4689 5.04163 13.9099 4.6435 14.4384 4.34877C14.9898 4.04124 15.5395 3.90024 15.9 3.90024C18.794 3.90024 21.1075 6.19138 21.2 9.11396V9.30024C21.2 10.8633 20.5949 12.2173 19.5918 13.1368L19.3 13.4043V13.4696C19.1484 13.5981 18.9529 13.7667 18.7251 13.9648C18.2194 14.4046 17.5422 15.0002 16.8049 15.6501C16.5685 15.8585 16.3258 16.0724 16.0805 16.2887C14.7961 17.4214 13.4391 18.6181 12.519 19.4129C12.2542 19.6294 11.8458 19.6294 11.581 19.4129C10.4827 18.4643 8.73879 16.9445 7.25475 15.6476C6.51131 14.9978 5.8337 14.4045 5.33589 13.9676Z" stroke="#6B7280" stroke-width="1.8"/>
</svg>
